:SAMPLES-PER-SECOND 30
:FRAME-RANGE 1-2045
:FULLY-SPECIFIED
:DEGREES
1343
root  -22.2064 38.6346 40.409 -169.462 -60.0267 168.85
RightUpLeg  -5.87147 9.11737 -5.18475
RightLeg  33.5819 0.265552 -0.057
RightFoot  -20.1299 0.296627 5.63295
RightToes  5.82063e-011 0 -3.6325e-017
Spine  9.43886 -2.28555 -5.04624
Spine1  4.58124 -4.3777 6.17998
HEad  -8.45276 -57.9239 14.7
LeftShoulder1  1.51519 -1.50878 -23.9867
LeftArm  -6.14065 6.25776 -24.9419
LeftForeArm  0.3014 -65.4327 -26.0402
LeftHand  0.0498515 4.80657 -18.6401
RightShoulder  7.71391 11.4229 45.1873
RightArm  8.36248 1.30469 15.8195
RightForeArm  -22.2901 66.4144 29.8096
RightHand  -0.218766 -6.60238 15.6504
LeftUpLeg  -11.59 13.0847 3.98127
LeftLeg  14.3614 -4.88672 -2.82566
LeftFoot  -1.52148 0.981408 -11.2914
LeftToes  -3.90176e-010 -2.48536e-010 1.05482e-011
1344
root  -23.0421 38.3836 40.8458 -168.631 -56.7944 167.441
RightUpLeg  -11.2606 4.25888 -9.00724
RightLeg  44.2886 2.08387 1.87651
RightFoot  -16.4903 0.474411 12.9982
RightToes  5.82063e-011 0 -3.6325e-017
Spine  9.9547 -2.10737 -7.38412
Spine1  4.66388 -4.4591 5.71639
HEad  -7.8085 -57.3052 14.4601
LeftShoulder1  1.60912 -1.85228 -23.7957
LeftArm  -5.35965 2.86361 -25.6448
LeftForeArm  -2.99029 -62.5078 -22.7749
LeftHand  0.104176 4.48471 -18.5724
RightShoulder  7.86272 11.5364 45.7302
RightArm  6.8567 1.5434 16.0859
RightForeArm  -23.8922 65.1878 28.0448
RightHand  -0.196387 -6.46834 15.3595
LeftUpLeg  -12.0395 16.9161 1.63952
LeftLeg  18.8553 -5.85824 -3.01824
LeftFoot  -4.98675 0.630885 -10.8037
LeftToes  -3.90176e-010 -2.48536e-010 1.05482e-011
1345
root  -23.913 38.3636 41.256 -169 -53.4473 167.329
RightUpLeg  -16.6498 -0.415452 -11.428
RightLeg  52.6742 1.33006 1.4983
RightFoot  -8.44051 -0.465853 16.0212
RightToes  5.82063e-011 0 -3.6325e-017
Spine  10.1625 -2.16122 -7.67747
Spine1  4.76724 -4.30869 4.29604
HEad  -7.46403 -56.1543 13.4702
LeftShoulder1  1.67262 -2.05137 -23.8673
LeftArm  -4.23902 -0.416059 -25.4134
LeftForeArm  -5.29706 -60.368 -20.8398
LeftHand  0.111107 4.44557 -18.6119
RightShoulder  7.89241 11.4943 46.0421
RightArm  5.74918 1.37426 16.3474
RightForeArm  -24.1534 64.7142 27.3929
RightHand  -0.174398 -6.32397 15.1887
LeftUpLeg  -10.6675 19.6326 0.450855
LeftLeg  19.9623 -5.15027 -3.35395
LeftFoot  -6.95606 0.410983 -9.63088
LeftToes  -3.90176e-010 -2.48536e-010 1.05482e-011
1346
root  -24.8108 38.4367 41.5051 -170.025 -50.9791 167.953
RightUpLeg  -20.9165 -4.95231 -11.552
RightLeg  57.9329 -1.93153 -3.77896
RightFoot  -1.32233 -0.949933 10.7044
RightToes  5.82063e-011 0 -3.6325e-017
Spine  10.3291 -2.36879 -7.82095
Spine1  4.69491 -4.53635 4.31065
HEad  -7.19874 -54.86 12.2318
LeftShoulder1  1.68679 -2.10714 -23.8186
LeftArm  -3.01759 -3.0414 -25.4806
LeftForeArm  -6.72459 -58.8815 -19.6523
LeftHand  0.0897504 4.57091 -18.6037
RightShoulder  7.64657 11.0479 45.9775
RightArm  5.89919 1.17748 16.3887
RightForeArm  -24.7929 64.5402 27.1984
RightHand  -0.189735 -6.44331 15.0598
LeftUpLeg  -8.68707 20.4208 0.053635
LeftLeg  19.9378 -3.60676 -3.19022
LeftFoot  -8.45907 0.280598 -9.12831
LeftToes  -3.90176e-010 -2.48536e-010 1.05482e-011
1347
root  -25.6754 38.5593 41.6372 -171.351 -48.7516 169.132
RightUpLeg  -23.3132 -9.00055 -10.2879
RightLeg  58.7871 -3.86358 -7.32209
RightFoot  -1.49067 -0.758491 8.66719
RightToes  5.82063e-011 0 -3.6325e-017
Spine  10.4507 -2.48813 -7.69783
Spine1  4.4219 -4.72989 4.85034
HEad  -6.87471 -53.6583 11.1395
LeftShoulder1  1.68339 -2.13357 -23.6071
LeftArm  -2.01971 -4.69997 -26.1641
LeftForeArm  -7.28075 -58.1164 -19.0726
LeftHand  0.0774051 4.63784 -18.4322
RightShoulder  7.30055 10.4912 45.6359
RightArm  6.51914 0.601925 16.3493
RightForeArm  -25.8642 64.4044 27.0865
RightHand  -0.21268 -6.61914 14.9402
LeftUpLeg  -6.52128 19.61 0.186008
LeftLeg  19.1571 -0.791576 -2.78817
LeftFoot  -9.55007 0.200563 -9.16174
LeftToes  -3.90176e-010 -2.48536e-010 1.05482e-011
1348
root  -26.5052 38.7402 41.6527 -172.271 -46.2865 170.376
RightUpLeg  -24.8557 -11.7196 -8.13898
RightLeg  55.4116 -4.56538 -7.49518
RightFoot  -3.21048 -0.689673 9.37467
RightToes  5.82063e-011 0 -3.6325e-017
Spine  9.85089 -2.58551 -7.53515
Spine1  4.50004 -4.8444 5.47989
HEad  -7.1374 -52.306 10.8677
LeftShoulder1  1.68099 -2.17957 -23.3084
LeftArm  -1.45865 -5.32759 -26.7834
LeftForeArm  -6.97341 -58.2294 -19.1373
LeftHand  0.0618111 4.72866 -18.3705
RightShoulder  6.96633 9.86049 45.6047
RightArm  7.05447 0.350985 16.0242
RightForeArm  -26.7978 64.1661 26.8294
RightHand  -0.218653 -6.63657 15.2353
LeftUpLeg  -4.38161 17.1572 0.325729
LeftLeg  17.3665 4.02116 -2.36449
LeftFoot  -9.85493 0.177059 -9.09191
LeftToes  -3.90176e-010 -2.48536e-010 1.05482e-011
1349
root  -27.2952 38.9123 41.5653 -172.761 -43.6655 171.269
RightUpLeg  -25.3145 -14.0135 -5.62601
RightLeg  48.5719 -4.48119 -5.75339
RightFoot  -5.43228 -0.542973 9.77908
RightToes  5.82063e-011 0 -3.6325e-017
Spine  9.26915 -2.75553 -7.60355
Spine1  4.35312 -5.01139 6.02335
HEad  -7.11268 -50.6931 10.5962
LeftShoulder1  1.6574 -2.14983 -23.0321
LeftArm  -1.0178 -5.04084 -26.9492
LeftForeArm  -6.3895 -58.8984 -19.6374
LeftHand  0.040879 4.8516 -18.2924
RightShoulder  6.79697 9.54377 45.5771
RightArm  7.35043 -0.32257 15.7895
RightForeArm  -26.7148 64.4349 27.1832
RightHand  -0.225975 -6.65832 15.582
LeftUpLeg  -2.20649 14.2537 0.316109
LeftLeg  15.1447 9.41589 -2.50215
LeftFoot  -9.79838 0.18752 -9.5585
LeftToes  -3.90176e-010 -2.48536e-010 1.05482e-011
1350
root  -28.0568 39.0932 41.411 -173.607 -41.0824 172.419
RightUpLeg  -24.1446 -16.8294 -2.44009
RightLeg  38.9317 -6.49398 -5.85916
RightFoot  -6.73132 -0.456752 10.1809
RightToes  5.82063e-011 0 -3.6325e-017
Spine  9.26652 -3.06341 -6.92685
Spine1  3.8321 -5.19522 6.19347
HEad  -7.07217 -49.0797 10.3473
LeftShoulder1  1.63713 -2.09416 -22.9572
LeftArm  -0.585358 -4.26042 -26.4912
LeftForeArm  -6.02391 -59.6857 -20.2855
LeftHand  0.0145393 5.0106 -18.3984
RightShoulder  6.50938 9.02626 45.4501
RightArm  7.91812 -0.7301 15.8964
RightForeArm  -26.1384 64.9978 27.9265
RightHand  -0.240031 -6.76693 15.4682
LeftUpLeg  0.291637 12.3509 0.482757
LeftLeg  12.6484 13.6881 -2.9034
LeftFoot  -9.48399 0.221481 -10.1458
LeftToes  -3.90176e-010 -2.48536e-010 1.05482e-011
1351
root  -28.7679 39.1787 41.1975 -173.738 -38.657 173.143
RightUpLeg  -22.5464 -21.6562 1.40371
RightLeg  27.7382 -10.7173 -6.27491
RightFoot  -7.10066 -0.382668 9.01026
RightToes  5.82063e-011 0 -3.6325e-017
Spine  8.62795 -3.45833 -6.41731
Spine1  3.69619 -5.49314 6.39839
HEad  -7.47081 -47.7328 10.5689
LeftShoulder1  1.62858 -2.06525 -22.9551
LeftArm  -0.173228 -3.29477 -25.799
LeftForeArm  -5.79922 -60.4262 -20.9405
LeftHand  0.00314579 5.0788 -18.4447
RightShoulder  6.2954 8.69214 45.1512
RightArm  8.42296 -1.26337 16.2058
RightForeArm  -24.828 65.6822 28.8433
RightHand  -0.233383 -6.73265 15.3319
LeftUpLeg  1.81067 11.8623 0.165968
LeftLeg  11.1687 16.328 -2.98252
LeftFoot  -9.7225 0.213733 -10.9901
LeftToes  -3.90176e-010 -2.48536e-010 1.05482e-011
1352
root  -29.3838 39.2752 40.911 -174.378 -36.31 174.46
RightUpLeg  -21.8093 -30.1667 7.30876
RightLeg  18.8428 -13.5751 -5.29084
RightFoot  -5.35624 0.281576 -6.06859
RightToes  5.82063e-011 0 -3.6325e-017
Spine  8.32283 -3.63343 -5.25109
Spine1  4.07286 -5.77757 6.91551
HEad  -8.50072 -46.7764 11.5733
LeftShoulder1  1.625 -2.08386 -22.7847
LeftArm  -0.159365 -2.5531 -25.4383
LeftForeArm  -5.67488 -60.6981 -21.1863
LeftHand  0.0243683 4.95423 -18.5223
RightShoulder  6.1972 8.54695 44.9766
RightArm  8.71479 -1.59972 16.4493
RightForeArm  -24.097 66.0828 29.4117
RightHand  -0.247925 -6.81902 15.5031
LeftUpLeg  3.12731 14.4633 0.81503
LeftLeg  10.6653 15.8949 -2.83941
LeftFoot  -10.0117 0.193966 -11.5308
LeftToes  -3.90176e-010 -2.48536e-010 1.05482e-011
1353
root  -29.9603 39.1214 40.5384 -174.929 -33.7745 174.841
RightUpLeg  -18.1163 -26.8315 6.16331
RightLeg  15.585 -27.2034 -3.57342
RightFoot  -8.79578 0.141529 -9.01161
RightToes  5.82063e-011 0 -3.6325e-017
Spine  8.50299 -3.62178 -4.74541
Spine1  4.20661 -5.7102 6.59405
HEad  -9.31358 -46.4019 12.7133
LeftShoulder1  1.62393 -2.1524 -22.4644
LeftArm  -0.0982621 -2.10691 -25.1701
LeftForeArm  -5.87651 -60.8791 -21.3792
LeftHand  0.0248107 4.95881 -18.9594
RightShoulder  6.24456 8.65723 44.9058
RightArm  8.82497 -1.88478 16.5936
RightForeArm  -23.3669 66.2887 29.6867
RightHand  -0.203374 -6.56889 14.7322
LeftUpLeg  2.88712 24.4991 1.27117
LeftLeg  15.1549 8.02085 -0.378935
LeftFoot  -11.6038 0.0387094 -13.287
LeftToes  -3.90176e-010 -2.48536e-010 1.05482e-011
1354
root  -30.5207 38.8779 40.1994 -176.019 -30.7428 175.981
RightUpLeg  -16.593 -19.6128 4.75077
RightLeg  17.4791 -32.3062 -3.88701
RightFoot  -10.9102 -0.0360861 -9.90144
RightToes  5.82063e-011 0 -3.6325e-017
Spine  9.21609 -3.41332 -2.54633
Spine1  4.24817 -5.17214 5.76602
HEad  -9.80167 -46.1831 13.1217
LeftShoulder1  1.62487 -2.11135 -22.6319
LeftArm  0.333114 -2.53904 -24.6611
LeftForeArm  -6.45878 -60.6571 -21.2194
LeftHand  0.000469629 5.0995 -18.9813
RightShoulder  6.41244 9.01169 44.8006
RightArm  8.8024 -1.836 16.6657
RightForeArm  -23.3478 66.3296 29.7513
RightHand  -0.209715 -6.65045 14.3453
LeftUpLeg  0.168574 30.8726 2.35962
LeftLeg  24.2639 3.45299 2.03638
LeftFoot  -12.5576 -0.110601 -17.3525
LeftToes  -3.90176e-010 -2.48536e-010 1.05482e-011
1355
root  -31.0367 38.4649 39.9817 -176.936 -27.672 177.835
RightUpLeg  -19.985 -27.9694 9.2905
RightLeg  22.3812 -19.8307 -6.46487
RightFoot  -12.8188 -0.193315 -8.27286
RightToes  5.82063e-011 0 -3.6325e-017
Spine  10.679 -3.21882 0.710946
Spine1  3.34007 -4.40119 4.98122
HEad  -10.1026 -45.6747 13.0319
LeftShoulder1  1.6293 -2.09496 -22.8051
LeftArm  0.532277 -3.29542 -24.9005
LeftForeArm  -7.41367 -59.7982 -20.5096
LeftHand  0.0111873 5.038 -19.0057
RightShoulder  6.65327 9.56736 44.4904
RightArm  8.57226 -1.25027 16.6897
RightForeArm  -24.2457 65.7583 28.9183
RightHand  -0.214757 -6.69071 14.3229
LeftUpLeg  -6.77164 28.3756 3.33131
LeftLeg  38.6615 5.79939 5.32711
LeftFoot  -8.79465 0.596925 -24.176
LeftToes  -3.90176e-010 -2.48536e-010 1.05482e-011
1356
root  -31.517 38.0691 39.808 -177.347 -24.9516 179.535
RightUpLeg  -22.1379 -29.9449 11.6225
RightLeg  25.95 -15.0862 -6.98508
RightFoot  -14.8183 -0.335672 -7.75133
RightToes  5.82063e-011 0 -3.6325e-017
Spine  11.8461 -3.00767 2.89914
Spine1  2.88095 -4.02842 5.49868
HEad  -10.541 -44.5312 13.1662
LeftShoulder1  1.65029 -2.25415 -22.3406
LeftArm  0.0250505 -3.4578 -25.8311
LeftForeArm  -7.36703 -59.4785 -20.2214
LeftHand  0.0244692 4.9598 -18.8982
RightShoulder  7.01956 10.5166 43.7187
RightArm  7.89386 -0.710907 16.7669
RightForeArm  -25.1334 65.3673 28.3937
RightHand  -0.223052 -6.74272 14.4322
LeftUpLeg  -15.866 23.925 3.54165
LeftLeg  52.0931 4.75691 6.98148
LeftFoot  3.5981 1.68776 -12.9952
LeftToes  -3.90176e-010 -2.48536e-010 1.05482e-011
1357
root  -32.0175 37.6094 39.6807 -178.011 -22.3179 -179.025
RightUpLeg  -23.7867 -29.3682 12.859
RightLeg  30.3115 -12.8101 -8.07966
RightFoot  -16.7577 -0.460383 -7.32934
RightToes  5.82063e-011 0 -3.6325e-017
Spine  13.8062 -2.83654 4.57003
Spine1  2.32787 -3.8415 6.49754
HEad  -11.8092 -43.1384 14.5881
LeftShoulder1  1.65709 -2.39332 -21.7464
LeftArm  -0.213578 -3.93257 -26.1639
LeftForeArm  -6.71313 -59.7744 -20.4261
LeftHand  0.0287234 4.934 -18.8314
RightShoulder  7.32053 11.2025 43.4472
RightArm  7.31537 0.155939 16.3669
RightForeArm  -25.2229 65.5145 28.6182
RightHand  -0.254212 -6.98395 14.3699
LeftUpLeg  -22.9973 18.7086 4.73588
LeftLeg  60.8923 1.43613 3.36963
LeftFoot  5.87838 1.17999 -8.0212
LeftToes  -3.90176e-010 -2.48536e-010 1.05482e-011
